<svg width="40" height="40" viewBox="0 0 40 40" fill="none" xmlns="http://www.w3.org/2000/svg">
<path d="M26 19.9999C26 21.5912 25.3679 23.1174 24.2427 24.2426C23.1175 25.3678 21.5913 25.9999 20 25.9999C18.4088 25.9999 16.8826 25.3678 15.7574 24.2426C14.6322 23.1174 14 21.5912 14 19.9999C14 19.6579 14.036 19.3239 14.098 18.9999H12V26.9939C12 27.5499 12.45 27.9999 13.006 27.9999H26.996C27.2625 27.9994 27.5179 27.8932 27.7061 27.7046C27.8943 27.516 28 27.2604 28 26.9939V18.9999H25.9021C25.9641 19.3239 26 19.6579 26 19.9999ZM20 23.9999C20.5255 23.9998 21.0457 23.8962 21.5311 23.695C22.0165 23.4938 22.4575 23.199 22.8289 22.8274C23.2003 22.4557 23.4949 22.0146 23.6959 21.5291C23.8968 21.0436 24.0002 20.5233 24 19.9979C23.9999 19.4725 23.8963 18.9523 23.6951 18.4669C23.4939 17.9815 23.1991 17.5405 22.8275 17.1691C22.4559 16.7977 22.0147 16.503 21.5292 16.3021C21.0438 16.1012 20.5235 15.9978 19.998 15.9979C18.9369 15.9982 17.9194 16.42 17.1692 17.1705C16.4191 17.921 15.9978 18.9388 15.998 19.9999C15.9983 21.0611 16.4201 22.0786 17.1706 22.8288C17.9211 23.5789 18.9389 24.0002 20 23.9999ZM24.8 15.7999H27.198C27.3574 15.7999 27.5102 15.7368 27.623 15.6243C27.7359 15.5118 27.7995 15.3592 27.8 15.1999V12.8019C27.8 12.6423 27.7366 12.4891 27.6237 12.3762C27.5108 12.2634 27.3577 12.1999 27.198 12.1999H24.8C24.6404 12.1999 24.4873 12.2634 24.3744 12.3762C24.2615 12.4891 24.198 12.6423 24.198 12.8019V15.1999C24.2001 15.5299 24.47 15.7999 24.8 15.7999ZM20 0.799927C14.9079 0.799927 10.0243 2.82278 6.4236 6.42348C2.8229 10.0242 0.800049 14.9078 0.800049 19.9999C0.800049 25.0921 2.8229 29.9757 6.4236 33.5764C10.0243 37.1771 14.9079 39.1999 20 39.1999C22.5214 39.1999 25.0181 38.7033 27.3476 37.7384C29.677 36.7735 31.7936 35.3593 33.5765 33.5764C35.3594 31.7935 36.7736 29.6769 37.7385 27.3475C38.7034 25.018 39.2001 22.5213 39.2001 19.9999C39.2001 17.4785 38.7034 14.9819 37.7385 12.6524C36.7736 10.323 35.3594 8.20636 33.5765 6.42348C31.7936 4.64059 29.677 3.22633 27.3476 2.26144C25.0181 1.29655 22.5214 0.799927 20 0.799927ZM30 27.7779C30 28.9999 29 29.9999 27.778 29.9999H12.222C11 29.9999 10 28.9999 10 27.7779V12.2219C10 10.9999 11 9.99993 12.222 9.99993H27.778C29 9.99993 30 10.9999 30 12.2219V27.7779Z" fill="#333333"/>
</svg>
