<svg width="308" height="75" viewBox="0 0 308 75" fill="none" xmlns="http://www.w3.org/2000/svg">
<rect y="18" width="308" height="49" fill="#333333"/>
<path d="M60 25.1875V29.9688H43.6562V25.1875H60ZM65.0938 25.1875V59H59.3125V25.1875H65.0938ZM42.25 25.1875H48.0625L47.1875 41.5C47.0417 44.0208 46.8021 46.25 46.4688 48.1875C46.1562 50.1042 45.7188 51.75 45.1562 53.125C44.6146 54.5 43.9271 55.625 43.0938 56.5C42.2812 57.3542 41.3021 57.9896 40.1562 58.4062C39.0104 58.8021 37.6875 59 36.1875 59H34.375V53.9062L35.625 53.8125C36.5208 53.75 37.2812 53.5417 37.9062 53.1875C38.5521 52.8333 39.0938 52.3125 39.5312 51.625C39.9688 50.9167 40.3229 50.0104 40.5938 48.9062C40.8854 47.8021 41.1042 46.4896 41.25 44.9688C41.4167 43.4479 41.5417 41.6771 41.625 39.6562L42.25 25.1875ZM72.875 42.4688V41.75C72.875 39.3125 73.2292 37.0521 73.9375 34.9688C74.6458 32.8646 75.6667 31.0417 77 29.5C78.3333 27.9375 79.9479 26.7292 81.8438 25.875C83.7396 25 85.8646 24.5625 88.2188 24.5625C90.5938 24.5625 92.7292 25 94.625 25.875C96.5417 26.7292 98.1667 27.9375 99.5 29.5C100.854 31.0417 101.885 32.8646 102.594 34.9688C103.302 37.0521 103.656 39.3125 103.656 41.75V42.4688C103.656 44.9062 103.302 47.1667 102.594 49.25C101.885 51.3333 100.854 53.1562 99.5 54.7188C98.1667 56.2604 96.5521 57.4688 94.6562 58.3438C92.7812 59.1979 90.6562 59.625 88.2812 59.625C85.9062 59.625 83.7708 59.1979 81.875 58.3438C79.9792 57.4688 78.3542 56.2604 77 54.7188C75.6667 53.1562 74.6458 51.3333 73.9375 49.25C73.2292 47.1667 72.875 44.9062 72.875 42.4688ZM78.6562 41.75V42.4688C78.6562 44.1562 78.8542 45.75 79.25 47.25C79.6458 48.7292 80.2396 50.0417 81.0312 51.1875C81.8438 52.3333 82.8542 53.2396 84.0625 53.9062C85.2708 54.5521 86.6771 54.875 88.2812 54.875C89.8646 54.875 91.25 54.5521 92.4375 53.9062C93.6458 53.2396 94.6458 52.3333 95.4375 51.1875C96.2292 50.0417 96.8229 48.7292 97.2188 47.25C97.6354 45.75 97.8438 44.1562 97.8438 42.4688V41.75C97.8438 40.0833 97.6354 38.5104 97.2188 37.0312C96.8229 35.5312 96.2188 34.2083 95.4062 33.0625C94.6146 31.8958 93.6146 30.9792 92.4062 30.3125C91.2188 29.6458 89.8229 29.3125 88.2188 29.3125C86.6354 29.3125 85.2396 29.6458 84.0312 30.3125C82.8438 30.9792 81.8438 31.8958 81.0312 33.0625C80.2396 34.2083 79.6458 35.5312 79.25 37.0312C78.8542 38.5104 78.6562 40.0833 78.6562 41.75ZM132.75 25.1875V29.9688H117.125V59H111.344V25.1875H132.75ZM135.625 42.4688V41.75C135.625 39.3125 135.979 37.0521 136.688 34.9688C137.396 32.8646 138.417 31.0417 139.75 29.5C141.083 27.9375 142.698 26.7292 144.594 25.875C146.49 25 148.615 24.5625 150.969 24.5625C153.344 24.5625 155.479 25 157.375 25.875C159.292 26.7292 160.917 27.9375 162.25 29.5C163.604 31.0417 164.635 32.8646 165.344 34.9688C166.052 37.0521 166.406 39.3125 166.406 41.75V42.4688C166.406 44.9062 166.052 47.1667 165.344 49.25C164.635 51.3333 163.604 53.1562 162.25 54.7188C160.917 56.2604 159.302 57.4688 157.406 58.3438C155.531 59.1979 153.406 59.625 151.031 59.625C148.656 59.625 146.521 59.1979 144.625 58.3438C142.729 57.4688 141.104 56.2604 139.75 54.7188C138.417 53.1562 137.396 51.3333 136.688 49.25C135.979 47.1667 135.625 44.9062 135.625 42.4688ZM141.406 41.75V42.4688C141.406 44.1562 141.604 45.75 142 47.25C142.396 48.7292 142.99 50.0417 143.781 51.1875C144.594 52.3333 145.604 53.2396 146.812 53.9062C148.021 54.5521 149.427 54.875 151.031 54.875C152.615 54.875 154 54.5521 155.188 53.9062C156.396 53.2396 157.396 52.3333 158.188 51.1875C158.979 50.0417 159.573 48.7292 159.969 47.25C160.385 45.75 160.594 44.1562 160.594 42.4688V41.75C160.594 40.0833 160.385 38.5104 159.969 37.0312C159.573 35.5312 158.969 34.2083 158.156 33.0625C157.365 31.8958 156.365 30.9792 155.156 30.3125C153.969 29.6458 152.573 29.3125 150.969 29.3125C149.385 29.3125 147.99 29.6458 146.781 30.3125C145.594 30.9792 144.594 31.8958 143.781 33.0625C142.99 34.2083 142.396 35.5312 142 37.0312C141.604 38.5104 141.406 40.0833 141.406 41.75ZM186.75 25.1875V59H180.938V25.1875H186.75ZM198.094 25.1875V29.875H169.812V25.1875H198.094ZM210.031 49.8438L225.625 25.1875H231.438V59H225.625V34.3438L210.031 59H204.281V25.1875H210.031V49.8438ZM263.25 25.1875V29.9688H246.156V25.1875H263.25ZM247 25.1875V59H241.219V25.1875H247ZM268.375 25.1875V59H262.562V25.1875H268.375Z" fill="#F2F2F2"/>
</svg>
