<?xml version="1.0" encoding="UTF-8"?>
<svg xmlns="http://www.w3.org/2000/svg" xmlns:xlink="http://www.w3.org/1999/xlink" width="25px" height="25px" viewBox="0 0 25 25" version="1.1">
<g id="surface1">
<path style=" stroke:none;fill-rule:nonzero;fill:rgb(23.137255%,34.901961%,59.607843%);fill-opacity:1;" d="M 25 12.5 C 25 19.402344 19.402344 25 12.5 25 C 5.597656 25 0 19.402344 0 12.5 C 0 5.597656 5.597656 0 12.5 0 C 19.402344 0 25 5.597656 25 12.5 Z M 25 12.5 "/>
<path style=" stroke:none;fill-rule:nonzero;fill:rgb(100%,100%,100%);fill-opacity:1;" d="M 15.640625 12.988281 L 13.410156 12.988281 L 13.410156 21.160156 L 10.03125 21.160156 L 10.03125 12.988281 L 8.425781 12.988281 L 8.425781 10.117188 L 10.03125 10.117188 L 10.03125 8.257812 C 10.03125 6.929688 10.664062 4.847656 13.441406 4.847656 L 15.945312 4.859375 L 15.945312 7.648438 L 14.128906 7.648438 C 13.832031 7.648438 13.414062 7.796875 13.414062 8.429688 L 13.414062 10.121094 L 15.9375 10.121094 Z M 15.640625 12.988281 "/>
</g>
</svg>
