<svg width="30" height="30" viewBox="0 0 30 30" fill="none" xmlns="http://www.w3.org/2000/svg">
<path d="M15 0C9.00908 0 4.13513 4.87394 4.13513 10.8648C4.13513 18.2996 13.8581 29.2144 14.2721 29.6754C14.6609 30.1085 15.3398 30.1078 15.7279 29.6754C16.1419 29.2144 25.8649 18.2996 25.8649 10.8648C25.8647 4.87394 20.9909 0 15 0ZM15 16.3312C11.9858 16.3312 9.53367 13.879 9.53367 10.8648C9.53367 7.85062 11.9859 5.39848 15 5.39848C18.0141 5.39848 20.4663 7.85068 20.4663 10.8649C20.4663 13.879 18.0141 16.3312 15 16.3312Z" fill="black"/>
</svg>
