<?xml version="1.0" encoding="UTF-8"?>
<svg xmlns="http://www.w3.org/2000/svg" xmlns:xlink="http://www.w3.org/1999/xlink" width="25px" height="25px" viewBox="0 0 25 25" version="1.1">
<g id="surface1">
<path style=" stroke:none;fill-rule:nonzero;fill:rgb(25.098039%,70.196078%,87.843137%);fill-opacity:1;" d="M 12.5 0 C 5.597656 0 0 5.597656 0 12.5 C 0 19.402344 5.597656 25 12.5 25 C 19.402344 25 25 19.402344 25 12.5 C 25 5.597656 19.402344 0 12.5 0 Z M 12.5 0 "/>
<path style=" stroke:none;fill-rule:nonzero;fill:rgb(100%,100%,100%);fill-opacity:1;" d="M 18.582031 7.191406 L 16.351562 18.445312 C 16.351562 18.445312 16.039062 19.226562 15.179688 18.851562 L 10.027344 14.902344 L 8.152344 13.996094 L 5 12.9375 C 5 12.9375 4.515625 12.765625 4.46875 12.390625 C 4.421875 12.015625 5.015625 11.8125 5.015625 11.8125 L 17.550781 6.894531 C 17.550781 6.894531 18.582031 6.441406 18.582031 7.191406 "/>
<path style=" stroke:none;fill-rule:nonzero;fill:rgb(82.352941%,89.803922%,94.509804%);fill-opacity:1;" d="M 9.628906 18.320312 C 9.628906 18.320312 9.480469 18.304688 9.292969 17.714844 C 9.105469 17.121094 8.152344 13.996094 8.152344 13.996094 L 15.726562 9.1875 C 15.726562 9.1875 16.164062 8.921875 16.148438 9.1875 C 16.148438 9.1875 16.226562 9.234375 15.992188 9.453125 C 15.757812 9.671875 10.042969 14.808594 10.042969 14.808594 "/>
<path style=" stroke:none;fill-rule:nonzero;fill:rgb(70.980392%,81.176471%,89.411765%);fill-opacity:1;" d="M 12.003906 16.417969 L 9.964844 18.277344 C 9.964844 18.277344 9.804688 18.394531 9.628906 18.320312 L 10.019531 14.871094 "/>
</g>
</svg>
