<?xml version="1.0" encoding="UTF-8"?>
<svg xmlns="http://www.w3.org/2000/svg" xmlns:xlink="http://www.w3.org/1999/xlink" width="25px" height="25px" viewBox="0 0 25 25" version="1.1">
<g id="surface1">
<path style=" stroke:none;fill-rule:nonzero;fill:rgb(15.294118%,52.941176%,96.078431%);fill-opacity:1;" d="M 25 12.5 C 25 19.402344 19.402344 25 12.5 25 C 5.597656 25 0 19.402344 0 12.5 C 0 5.597656 5.597656 0 12.5 0 C 19.402344 0 25 5.597656 25 12.5 Z M 25 12.5 "/>
<path style=" stroke:none;fill-rule:nonzero;fill:rgb(100%,100%,100%);fill-opacity:1;" d="M 14.300781 6.628906 L 10.699219 6.628906 C 7.40625 6.628906 6.628906 7.40625 6.628906 10.699219 L 6.628906 14.300781 C 6.628906 17.59375 7.40625 18.371094 10.699219 18.371094 L 14.300781 18.371094 C 17.59375 18.371094 18.371094 17.59375 18.371094 14.300781 L 18.371094 10.699219 C 18.371094 7.40625 17.585938 6.628906 14.300781 6.628906 Z M 16.109375 15.007812 L 15.253906 15.007812 C 14.929688 15.007812 14.832031 14.75 14.25 14.160156 C 13.746094 13.671875 13.523438 13.605469 13.398438 13.605469 C 13.222656 13.605469 13.171875 13.65625 13.171875 13.898438 L 13.171875 14.667969 C 13.171875 14.875 13.105469 15 12.558594 15 C 11.65625 15 10.652344 14.453125 9.949219 13.433594 C 8.890625 11.941406 8.597656 10.820312 8.597656 10.589844 C 8.597656 10.464844 8.648438 10.351562 8.890625 10.351562 L 9.742188 10.351562 C 9.957031 10.351562 10.042969 10.449219 10.125 10.679688 C 10.546875 11.898438 11.25 12.96875 11.539062 12.96875 C 11.648438 12.96875 11.699219 12.917969 11.699219 12.644531 L 11.699219 11.386719 C 11.664062 10.804688 11.359375 10.753906 11.359375 10.546875 C 11.359375 10.449219 11.441406 10.351562 11.574219 10.351562 L 12.917969 10.351562 C 13.097656 10.351562 13.164062 10.449219 13.164062 10.664062 L 13.164062 12.363281 C 13.164062 12.546875 13.246094 12.613281 13.296875 12.613281 C 13.40625 12.613281 13.496094 12.546875 13.695312 12.347656 C 14.308594 11.660156 14.746094 10.597656 14.746094 10.597656 C 14.804688 10.472656 14.90625 10.359375 15.121094 10.359375 L 15.976562 10.359375 C 16.230469 10.359375 16.289062 10.492188 16.230469 10.671875 C 16.125 11.171875 15.082031 12.644531 15.082031 12.644531 C 14.988281 12.792969 14.957031 12.859375 15.082031 13.027344 C 15.171875 13.152344 15.472656 13.40625 15.667969 13.640625 C 16.035156 14.054688 16.316406 14.402344 16.390625 14.640625 C 16.472656 14.882812 16.347656 15.007812 16.109375 15.007812 Z M 16.109375 15.007812 "/>
</g>
</svg>
